<?xml version="1.0" encoding="UTF-8"?><svg id="a" xmlns="http://www.w3.org/2000/svg" viewBox="0 0 411.92 136.12"><defs><style>.b{fill:#fff;}</style></defs><path class="b" d="M411.16,131.55l.75,.68V2.99l-.77,.68v-.02l.73-.66v-.19h-14.01l-6.91,.02v.08l.02,.02,.19,79.5h0l.69,1.92v.07l-.72-2c-1-1.29-2.08-2.69-3.23-4.18-2.16-2.79-4.57-5.9-7.15-9.24-16.01-20.68-37.94-49-45.95-59.71-3.71-4.94-10.56-6.15-12.72-6.41l-.07-.07-9.85,.02h-13.09v1.43c-.02,.07-.06,4.72-.09,8.88-.01,2.03-.03,3.95-.03,5.16l.04,113.95v.09h20.93l.12-.02c.27-.04,6.5-1.2,6.5-11.59V55.09c10.81,14.36,51.8,68.83,54.58,72.42,3.6,4.62,10.42,4.83,10.71,4.84h8.68l11.36-.03v-.09l-.73-.66v-.02Z"/><path class="b" d="M84.91,1.83l-.09-.04-.18-.02-.55-.13c-.48-.11-.96-.23-1.41-.31-4.25-.89-8.58-1.33-12.89-1.33h-.76C37.82,0,10.39,20.75,2.34,50.45c-1.55,5.72-2.34,11.64-2.34,17.61,0,37.53,30.97,68.06,69.05,68.06s69.04-30.53,69.04-68.06c0-31.76-21.86-58.97-53.18-66.23ZM44.64,41.7c1.03-5.14,3.21-9.47,6.48-12.85,5.24-5.33,11.49-7.91,19.12-7.91s13.95,2.66,19.1,7.91c3.28,3.38,5.47,7.71,6.49,12.84,.85,4.6,1.29,13.32,1.29,25.94s-.43,21.35-1.28,25.91c-1.03,5.15-3.21,9.47-6.49,12.85-5.15,5.25-11.58,7.92-19.1,7.92s-13.88-2.59-19.11-7.91c-3.28-3.39-5.47-7.71-6.49-12.84-.85-4.53-1.28-13.26-1.28-25.93s.43-21.39,1.28-25.92Z"/><path class="b" d="M270.77,2.82l-.24,.09c-.27,.1-6.72,2.61-9.47,12.5l-17.66,64.41-.07,.26-2.81-9.89L222.76,7.65l-1.37-4.83h-22.03l-.02,.08-1.57,5.63-19.47,69.78-.07-.24-2.67-9.39-15.73-55.28c-2.22-9.27-9.37-10.52-9.68-10.57l-.11-.02h-22.65l.44,1.79s.35,1.42,.86,3.42c.74,2.89,1.84,7.05,2.81,10.3,.31,1.06,.61,2.19,.92,3.47l26.58,99.35,2.84,11.18h27.42l.07-.23,21.01-74.2,.04-.14,7.1,23.96,15,50.61h6.69l2.42,.02h17.14l.05-.2L293.29,3.01l.05-.19h-22.57Z"/></svg>
